<?xml version="1.0" encoding="UTF-8" standalone="no"?>
<!DOCTYPE svg PUBLIC "-//W3C//DTD SVG 1.1//EN" "http://www.w3.org/Graphics/SVG/1.1/DTD/svg11.dtd">
<svg width="100%" height="100%" viewBox="0 0 16 16" version="1.1" xmlns="http://www.w3.org/2000/svg" xmlns:xlink="http://www.w3.org/1999/xlink" xml:space="preserve" xmlns:serif="http://www.serif.com/" style="fill-rule:evenodd;clip-rule:evenodd;stroke-linejoin:round;stroke-miterlimit:2;">
    <path d="M15,4C15,2.344 13.656,1 12,1L4,1C2.344,1 1,2.344 1,4L1,12C1,13.656 2.344,15 4,15L12,15C13.656,15 15,13.656 15,12L15,4Z" style="fill:rgb(250,167,57);"/>
    <path d="M11.41,3.712C11.177,3.771 10.954,3.866 10.75,3.992C10.333,4.272 9.674,4.996 9.118,5.769C8.841,6.156 8.598,6.469 8.589,6.452C8.487,6.147 8.392,5.839 8.303,5.53C8.146,5.028 7.93,4.485 7.808,4.32C7.313,3.597 6.368,3.498 5.005,4.025C4.302,4.289 4.267,4.313 4.145,4.65C3.963,5.177 4.059,5.243 4.84,5.086C5.386,4.988 5.508,4.979 5.725,5.086C6.133,5.276 6.272,5.539 6.697,6.954L7.097,8.287L6.871,8.657C6.628,9.052 5.716,10.154 5.499,10.327C5.386,10.409 5.274,10.409 4.874,10.31C3.807,10.047 3,10.5 3,11.363C3,12.054 3.4,12.4 4.189,12.4C4.996,12.4 5.899,11.693 6.949,10.228C7.235,9.834 7.434,9.62 7.46,9.693C7.486,9.759 7.547,9.973 7.599,10.179C7.972,11.619 8.345,12.153 9.092,12.318C9.708,12.458 10.489,12.376 11.313,12.071C11.999,11.824 12.007,11.816 12.103,11.437C12.242,10.944 12.163,10.877 11.591,10.993C10.991,11.116 10.593,11.108 10.306,10.968C9.811,10.721 9.699,10.508 9.196,8.78L8.9,7.75L9.456,6.969C9.768,6.541 10.15,6.064 10.323,5.908L10.627,5.628L11.183,5.735C12.354,5.941 13.057,5.463 12.996,4.501C12.954,3.851 12.242,3.497 11.409,3.711L11.41,3.712Z" style="fill:white;fill-rule:nonzero;"/>
</svg>
