<?xml version="1.0" encoding="UTF-8" standalone="no"?>
<!DOCTYPE svg PUBLIC "-//W3C//DTD SVG 1.1//EN" "http://www.w3.org/Graphics/SVG/1.1/DTD/svg11.dtd">
<svg width="100%" height="100%" viewBox="0 0 72 72" version="1.1" xmlns="http://www.w3.org/2000/svg" xmlns:xlink="http://www.w3.org/1999/xlink" xml:space="preserve" xmlns:serif="http://www.serif.com/" style="fill-rule:evenodd;clip-rule:evenodd;stroke-linejoin:round;stroke-miterlimit:2;">
    <g id="ico---24---media---editing---canvas_text" serif:id="ico / 24 / media &amp; editing / canvas_text">
        <path id="Icon-color" serif:id="Icon color" d="M64.5,48C65.328,48 66,48.672 66,49.5L66,52.5C66,53.328 65.328,54 64.5,54L50.07,54L56.58,63.3C56.848,63.677 56.994,64.127 57,64.59L57,65.25C57,65.664 56.664,66 56.25,66L52.71,66C51.728,65.998 50.81,65.517 50.25,64.71L42.75,54L29.25,54L21.75,64.71C21.19,65.517 20.272,65.998 19.29,66L15.75,66C15.336,66 15,65.664 15,65.25L15,64.59C15.006,64.127 15.152,63.677 15.42,63.3L21.93,54L7.5,54C6.672,54 6,53.328 6,52.5L6,49.5C6,48.672 6.672,48 7.5,48L9,48L9,18C9,14.686 11.686,12 15,12L33,12L33,7.5C33,6.672 33.672,6 34.5,6L37.5,6C38.328,6 39,6.672 39,7.5L39,12L57,12C60.314,12 63,14.686 63,18L63,48L64.5,48ZM15,48L57,48L57,18L15,18L15,48ZM22.5,42L37.5,42C38.328,42 39,41.328 39,40.5L39,37.5C39,36.672 38.328,36 37.5,36L22.5,36C21.672,36 21,36.672 21,37.5L21,40.5C21,41.328 21.672,42 22.5,42ZM49.5,30L22.5,30C21.672,30 21,29.328 21,28.5L21,25.5C21,24.672 21.672,24 22.5,24L49.5,24C50.328,24 51,24.672 51,25.5L51,28.5C51,29.328 50.328,30 49.5,30Z" style="fill:rgb(145,147,146);"/>
    </g>
</svg>
