<?xml version="1.0" encoding="UTF-8" standalone="no"?>
<!DOCTYPE svg PUBLIC "-//W3C//DTD SVG 1.1//EN" "http://www.w3.org/Graphics/SVG/1.1/DTD/svg11.dtd">
<svg width="100%" height="100%" viewBox="0 0 24 24" version="1.1" xmlns="http://www.w3.org/2000/svg" xmlns:xlink="http://www.w3.org/1999/xlink" xml:space="preserve" xmlns:serif="http://www.serif.com/" style="fill-rule:evenodd;clip-rule:evenodd;stroke-linejoin:round;stroke-miterlimit:2;">
    <path d="M23.5,18L22,18L22,5C22,4.451 21.549,4 21,4L3,4C2.451,4 2,4.451 2,5L2,18L0.5,18C0.226,18 -0,18.226 0,18.5L0,19C0,19.549 0.451,20 1,20L23,20C23.549,20 24,19.549 24,19L24,18.5C24,18.226 23.774,18 23.5,18ZM12,6.75C13.234,6.75 14.25,7.766 14.25,9C14.25,10.234 13.234,11.25 12,11.25C10.766,11.25 9.75,10.234 9.75,9C9.75,8.997 9.75,8.993 9.75,8.99C9.75,7.761 10.761,6.75 11.99,6.75C11.993,6.75 11.997,6.75 12,6.75ZM16.25,17L7.75,17C7.75,17 7.749,17 7.749,17C7.337,17 6.999,16.661 6.999,16.25C6.999,16.132 7.026,16.015 7.08,15.91L8,14.1C8.337,13.432 9.022,13.006 9.77,13L14.23,13C14.978,13.006 15.663,13.432 16,14.1L16.9,15.91C16.954,16.015 16.982,16.132 16.982,16.25C16.982,16.655 16.654,16.99 16.25,17Z" style="fill:rgb(145,147,146);fill-rule:nonzero;"/>
</svg>
