<?xml version="1.0" encoding="utf-8"?>
<!-- Generator: Adobe Illustrator 21.1.0, SVG Export Plug-In . SVG Version: 6.00 Build 0)  -->
<svg version="1.1" id="Ebene_1" xmlns="http://www.w3.org/2000/svg" xmlns:xlink="http://www.w3.org/1999/xlink" x="0px" y="0px"
	 viewBox="0 0 308 80" style="enable-background:new 0 0 308 80;" xml:space="preserve">
<style type="text/css">
	.st0{opacity:0.74;}
	.st1{fill:#25292F;}
	.st2{fill:url(#SVGID_1_);}
</style>
<g class="st0">
	<g>
		<path class="st1" d="M135.3,23.2l-13.7,12.5l-13.7-12.5h-4v33.7h8.9V39.7l8.8,8l8.8-8v17.2h8.9V23.2H135.3z"/>
	</g>
	<g>
		<path class="st1" d="M163.5,23.2h-4l-15.7,33.7h8.8l2-4.4h13.8l2,4.4h8.8L163.5,23.2z M158.1,45.1l3.5-7.4l3.4,7.4H158.1z"/>
	</g>
	<g>
		<path class="st1" d="M180.9,23.2V32h8.8v25h8.8V32h8.9v-8.8H180.9z"/>
	</g>
	<g>
		<path class="st1" d="M236.2,44.7c2.4-2.2,4-5.4,4-9c0-6.8-5.6-12.4-12.4-12.4h-14.2v33.7h8.8V48h5.4l5.2,8.9h10.2L236.2,44.7z
			 M227.9,40.3h-5.4v-9.6h5.4c2.7,0,4.8,2.2,4.8,4.8C232.7,38.2,230.6,40.3,227.9,40.3z"/>
	</g>
	<g>
		<path class="st1" d="M247.6,23.2v33.7h8.8V23.2H247.6z"/>
	</g>
	<g>
		<path class="st1" d="M283.4,39.4l11.2-16.1h-10.8l-5.9,8.4l-5.9-8.4h-10.8l11.2,16.1l-12.4,17.6H271l7-9.9l7,9.9h10.8L283.4,39.4z
			"/>
	</g>
</g>
<linearGradient id="SVGID_1_" gradientUnits="userSpaceOnUse" x1="15.3365" y1="28.0555" x2="87.1233" y2="51.3804">
	<stop  offset="0" style="stop-color:#63D77C"/>
	<stop  offset="1" style="stop-color:#42B99F"/>
</linearGradient>
<path class="st2" d="M74.5,41.3L49.1,64.5L23.6,41.3v17.8c-5.2-5.5-10-11.1-14.2-16.7c5.4-7.2,11.7-14.3,18.5-21.2
	c1.9-1.9,3.8-3.8,5.8-5.5l15.5,14l15.4-14c1.9,1.8,3.8,3.6,5.6,5.4C77,28,83.3,35.2,88.7,42.3c-4.3,5.6-9,11.3-14.2,16.7V41.3z"/>
</svg>
